<?xml version="1.0" encoding="UTF-8" standalone="no"?>
<!-- Created with Inkscape (http://www.inkscape.org/) -->

<svg
   xmlns:dc="http://purl.org/dc/elements/1.1/"
   xmlns:cc="http://creativecommons.org/ns#"
   xmlns:rdf="http://www.w3.org/1999/02/22-rdf-syntax-ns#"
   xmlns:svg="http://www.w3.org/2000/svg"
   xmlns="http://www.w3.org/2000/svg"
   xmlns:sodipodi="http://sodipodi.sourceforge.net/DTD/sodipodi-0.dtd"
   xmlns:inkscape="http://www.inkscape.org/namespaces/inkscape"
   id="svg8"
   version="1.1"
   viewBox="0 0 210 297"
   height="297mm"
   width="210mm"
   inkscape:version="0.92.3 (2405546, 2018-03-11)"
   sodipodi:docname="Box oben.svg">
  <sodipodi:namedview
     inkscape:measure-end="997.795,-621.184"
     inkscape:measure-start="891.969,-621.184"
     inkscape:window-maximized="1"
     inkscape:window-y="27"
     inkscape:window-x="1987"
     inkscape:window-height="1025"
     inkscape:window-width="1853"
     showgrid="false"
     inkscape:current-layer="svg8"
     inkscape:document-units="mm"
     inkscape:cy="142.00549"
     inkscape:cx="1221.0338"
     inkscape:zoom="1"
     inkscape:pageshadow="2"
     inkscape:pageopacity="0.0"
     borderopacity="1.0"
     bordercolor="#666666"
     pagecolor="#ffffff"
     id="base" />
  <defs
     id="defs2" />
  <metadata
     id="metadata5">
    <rdf:RDF>
      <cc:Work
         rdf:about="">
        <dc:format>image/svg+xml</dc:format>
        <dc:type
           rdf:resource="http://purl.org/dc/dcmitype/StillImage" />
        <dc:title />
      </cc:Work>
    </rdf:RDF>
  </metadata>
  <g
     inkscape:label="Ebene 1"
     inkscape:groupmode="layer"
     id="layer1" />
  <g
     inkscape:label="newlayer"
     inkscape:groupmode="layer"
     id="g1573" />
  <g
     id="g2300"
     inkscape:groupmode="layer"
     inkscape:label="newlayer" />
  <g
     inkscape:label="newlayer"
     inkscape:groupmode="layer"
     id="g3532" />
  <g
     id="g3740"
     inkscape:groupmode="layer"
     inkscape:label="newlayer" />
  <g
     inkscape:label="newlayer"
     inkscape:groupmode="layer"
     id="g4195" />
  <g
     id="g851"
     inkscape:groupmode="layer"
     inkscape:label="newlayer" />
  <path
     id="path853"
     inkscape:label="part"
     style="stroke:#000000;stroke-width:0.26458333;fill:none;stroke-miterlimit:4;stroke-dasharray:none"
     d="M 170.0,343.0 L 183.954999999,343.0 L 183.954999999,339.0 L 194.045000001,339.0 L 194.045000001,343.0 L 208.0,343.0 " />
  <path
     id="path855"
     inkscape:label="part"
     style="stroke:#000000;stroke-width:0.26458333;fill:none;stroke-miterlimit:4;stroke-dasharray:none"
     d="M 208.0,343.0 L 208.0,351.295000001 L 204.0,351.295000001 L 204.0,361.204999999 L 208.0,361.204999999 L 208.0,373.545000001 L 204.0,373.545000001 L 204.0,383.454999999 L 208.0,383.454999999 L 208.0,395.795000001 L 204.0,395.795000001 L 204.0,405.704999999 L 208.0,405.704999999 L 208.0,418.045000001 L 204.0,418.045000001 L 204.0,427.954999999 L 208.0,427.954999999 L 208.0,440.295000001 L 204.0,440.295000001 L 204.0,450.204999999 L 208.0,450.204999999 L 208.0,462.545000001 L 204.0,462.545000001 L 204.0,472.454999999 L 208.0,472.454999999 L 208.0,484.795000001 L 204.0,484.795000001 L 204.0,494.704999999 L 208.0,494.704999999 L 208.0,503.0 " />
  <path
     id="path857"
     inkscape:label="part"
     style="stroke:#000000;stroke-width:0.26458333;fill:none;stroke-miterlimit:4;stroke-dasharray:none"
     d="M 208.0,503.0 L 194.045000001,503.0 L 194.045000001,507.0 L 183.954999999,507.0 L 183.954999999,503.0 L 170.0,503.0 " />
  <path
     id="path859"
     inkscape:label="part"
     style="stroke:#000000;stroke-width:0.26458333;fill:none;stroke-miterlimit:4;stroke-dasharray:none"
     d="M 170.0,503.0 L 170.0,494.704999999 L 174.0,494.704999999 L 174.0,484.795000001 L 170.0,484.795000001 L 170.0,472.454999999 L 174.0,472.454999999 L 174.0,462.545000001 L 170.0,462.545000001 L 170.0,450.204999999 L 174.0,450.204999999 L 174.0,440.295000001 L 170.0,440.295000001 L 170.0,427.954999999 L 174.0,427.954999999 L 174.0,418.045000001 L 170.0,418.045000001 L 170.0,405.704999999 L 174.0,405.704999999 L 174.0,395.795000001 L 170.0,395.795000001 L 170.0,383.454999999 L 174.0,383.454999999 L 174.0,373.545000001 L 170.0,373.545000001 L 170.0,361.204999999 L 174.0,361.204999999 L 174.0,351.295000001 L 170.0,351.295000001 L 170.0,343.0 " />
  <path
     id="path861"
     inkscape:label="part"
     style="stroke:#000000;stroke-width:0.26458333;fill:none;stroke-miterlimit:4;stroke-dasharray:none"
     d="M 5.0,174.0 L 13.2049999991,174.0 L 13.2049999991,170.0 L 23.2950000009,170.0 L 23.2950000009,174.0 L 35.4549999991,174.0 L 35.4549999991,170.0 L 45.5450000009,170.0 L 45.5450000009,174.0 L 57.7049999991,174.0 L 57.7049999991,170.0 L 67.7950000009,170.0 L 67.7950000009,174.0 L 79.9549999991,174.0 L 79.9549999991,170.0 L 90.0450000009,170.0 L 90.0450000009,174.0 L 102.204999999,174.0 L 102.204999999,170.0 L 112.295000001,170.0 L 112.295000001,174.0 L 124.454999999,174.0 L 124.454999999,170.0 L 134.545000001,170.0 L 134.545000001,174.0 L 146.704999999,174.0 L 146.704999999,170.0 L 156.795000001,170.0 L 156.795000001,174.0 L 165.0,174.0 " />
  <path
     id="path863"
     inkscape:label="part"
     style="stroke:#000000;stroke-width:0.26458333;fill:none;stroke-miterlimit:4;stroke-dasharray:none"
     d="M 165.0,174.0 L 165.0,182.204999999 L 169.0,182.204999999 L 169.0,192.295000001 L 165.0,192.295000001 L 165.0,204.454999999 L 169.0,204.454999999 L 169.0,214.545000001 L 165.0,214.545000001 L 165.0,226.704999999 L 169.0,226.704999999 L 169.0,236.795000001 L 165.0,236.795000001 L 165.0,248.954999999 L 169.0,248.954999999 L 169.0,259.045000001 L 165.0,259.045000001 L 165.0,271.204999999 L 169.0,271.204999999 L 169.0,281.295000001 L 165.0,281.295000001 L 165.0,293.454999999 L 169.0,293.454999999 L 169.0,303.545000001 L 165.0,303.545000001 L 165.0,315.704999999 L 169.0,315.704999999 L 169.0,325.795000001 L 165.0,325.795000001 L 165.0,334.0 " />
  <path
     id="path865"
     inkscape:label="part"
     style="stroke:#000000;stroke-width:0.26458333;fill:none;stroke-miterlimit:4;stroke-dasharray:none"
     d="M 165.0,334.0 L 156.795000001,334.0 L 156.795000001,338.0 L 146.704999999,338.0 L 146.704999999,334.0 L 134.545000001,334.0 L 134.545000001,338.0 L 124.454999999,338.0 L 124.454999999,334.0 L 112.295000001,334.0 L 112.295000001,338.0 L 102.204999999,338.0 L 102.204999999,334.0 L 90.0450000009,334.0 L 90.0450000009,338.0 L 79.9549999991,338.0 L 79.9549999991,334.0 L 67.7950000009,334.0 L 67.7950000009,338.0 L 57.7049999991,338.0 L 57.7049999991,334.0 L 45.5450000009,334.0 L 45.5450000009,338.0 L 35.4549999991,338.0 L 35.4549999991,334.0 L 23.2950000009,334.0 L 23.2950000009,338.0 L 13.2049999991,338.0 L 13.2049999991,334.0 L 5.0,334.0 " />
  <path
     id="path867"
     inkscape:label="part"
     style="stroke:#000000;stroke-width:0.26458333;fill:none;stroke-miterlimit:4;stroke-dasharray:none"
     d="M 5.0,334.0 L 5.0,325.795000001 L 1.0,325.795000001 L 1.0,315.704999999 L 5.0,315.704999999 L 5.0,303.545000001 L 1.0,303.545000001 L 1.0,293.454999999 L 5.0,293.454999999 L 5.0,281.295000001 L 1.0,281.295000001 L 1.0,271.204999999 L 5.0,271.204999999 L 5.0,259.045000001 L 1.0,259.045000001 L 1.0,248.954999999 L 5.0,248.954999999 L 5.0,236.795000001 L 1.0,236.795000001 L 1.0,226.704999999 L 5.0,226.704999999 L 5.0,214.545000001 L 1.0,214.545000001 L 1.0,204.454999999 L 5.0,204.454999999 L 5.0,192.295000001 L 1.0,192.295000001 L 1.0,182.204999999 L 5.0,182.204999999 L 5.0,174.0 " />
  <path
     id="path869"
     inkscape:label="part"
     style="stroke:#000000;stroke-width:0.26458333;fill:none;stroke-miterlimit:4;stroke-dasharray:none"
     d="M 170.0,170.0 L 184.045000001,170.0 L 184.045000001,174.0 L 193.954999999,174.0 L 193.954999999,170.0 L 208.0,170.0 " />
  <path
     id="path871"
     inkscape:label="part"
     style="stroke:#000000;stroke-width:0.26458333;fill:none;stroke-miterlimit:4;stroke-dasharray:none"
     d="M 208.0,170.0 L 208.0,182.295000001 L 204.0,182.295000001 L 204.0,192.204999999 L 208.0,192.204999999 L 208.0,204.545000001 L 204.0,204.545000001 L 204.0,214.454999999 L 208.0,214.454999999 L 208.0,226.795000001 L 204.0,226.795000001 L 204.0,236.704999999 L 208.0,236.704999999 L 208.0,249.045000001 L 204.0,249.045000001 L 204.0,258.954999999 L 208.0,258.954999999 L 208.0,271.295000001 L 204.0,271.295000001 L 204.0,281.204999999 L 208.0,281.204999999 L 208.0,293.545000001 L 204.0,293.545000001 L 204.0,303.454999999 L 208.0,303.454999999 L 208.0,315.795000001 L 204.0,315.795000001 L 204.0,325.704999999 L 208.0,325.704999999 L 208.0,338.0 " />
  <path
     id="path873"
     inkscape:label="part"
     style="stroke:#000000;stroke-width:0.26458333;fill:none;stroke-miterlimit:4;stroke-dasharray:none"
     d="M 208.0,338.0 L 193.954999999,338.0 L 193.954999999,334.0 L 184.045000001,334.0 L 184.045000001,338.0 L 170.0,338.0 " />
  <path
     id="path875"
     inkscape:label="part"
     style="stroke:#000000;stroke-width:0.26458333;fill:none;stroke-miterlimit:4;stroke-dasharray:none"
     d="M 170.0,338.0 L 170.0,325.704999999 L 174.0,325.704999999 L 174.0,315.795000001 L 170.0,315.795000001 L 170.0,303.454999999 L 174.0,303.454999999 L 174.0,293.545000001 L 170.0,293.545000001 L 170.0,281.204999999 L 174.0,281.204999999 L 174.0,271.295000001 L 170.0,271.295000001 L 170.0,258.954999999 L 174.0,258.954999999 L 174.0,249.045000001 L 170.0,249.045000001 L 170.0,236.704999999 L 174.0,236.704999999 L 174.0,226.795000001 L 170.0,226.795000001 L 170.0,214.454999999 L 174.0,214.454999999 L 174.0,204.545000001 L 170.0,204.545000001 L 170.0,192.204999999 L 174.0,192.204999999 L 174.0,182.295000001 L 170.0,182.295000001 L 170.0,170.0 " />
  <path
     id="path877"
     inkscape:label="part"
     style="stroke:#000000;stroke-width:0.26458333;fill:none;stroke-miterlimit:4;stroke-dasharray:none"
     d="M 213.0,174.0 L 221.204999999,174.0 L 221.204999999,170.0 L 231.295000001,170.0 L 231.295000001,174.0 L 243.454999999,174.0 L 243.454999999,170.0 L 253.545000001,170.0 L 253.545000001,174.0 L 265.704999999,174.0 L 265.704999999,170.0 L 275.795000001,170.0 L 275.795000001,174.0 L 287.954999999,174.0 L 287.954999999,170.0 L 298.045000001,170.0 L 298.045000001,174.0 L 310.204999999,174.0 L 310.204999999,170.0 L 320.295000001,170.0 L 320.295000001,174.0 L 332.454999999,174.0 L 332.454999999,170.0 L 342.545000001,170.0 L 342.545000001,174.0 L 354.704999999,174.0 L 354.704999999,170.0 L 364.795000001,170.0 L 364.795000001,174.0 L 373.0,174.0 " />
  <path
     id="path879"
     inkscape:label="part"
     style="stroke:#000000;stroke-width:0.26458333;fill:none;stroke-miterlimit:4;stroke-dasharray:none"
     d="M 373.0,174.0 L 373.0,182.204999999 L 377.0,182.204999999 L 377.0,192.295000001 L 373.0,192.295000001 L 373.0,204.454999999 L 377.0,204.454999999 L 377.0,214.545000001 L 373.0,214.545000001 L 373.0,226.704999999 L 377.0,226.704999999 L 377.0,236.795000001 L 373.0,236.795000001 L 373.0,248.954999999 L 377.0,248.954999999 L 377.0,259.045000001 L 373.0,259.045000001 L 373.0,271.204999999 L 377.0,271.204999999 L 377.0,281.295000001 L 373.0,281.295000001 L 373.0,293.454999999 L 377.0,293.454999999 L 377.0,303.545000001 L 373.0,303.545000001 L 373.0,315.704999999 L 377.0,315.704999999 L 377.0,325.795000001 L 373.0,325.795000001 L 373.0,334.0 " />
  <path
     id="path881"
     inkscape:label="part"
     style="stroke:#000000;stroke-width:0.26458333;fill:none;stroke-miterlimit:4;stroke-dasharray:none"
     d="M 373.0,334.0 L 364.795000001,334.0 L 364.795000001,338.0 L 354.704999999,338.0 L 354.704999999,334.0 L 342.545000001,334.0 L 342.545000001,338.0 L 332.454999999,338.0 L 332.454999999,334.0 L 320.295000001,334.0 L 320.295000001,338.0 L 310.204999999,338.0 L 310.204999999,334.0 L 298.045000001,334.0 L 298.045000001,338.0 L 287.954999999,338.0 L 287.954999999,334.0 L 275.795000001,334.0 L 275.795000001,338.0 L 265.704999999,338.0 L 265.704999999,334.0 L 253.545000001,334.0 L 253.545000001,338.0 L 243.454999999,338.0 L 243.454999999,334.0 L 231.295000001,334.0 L 231.295000001,338.0 L 221.204999999,338.0 L 221.204999999,334.0 L 213.0,334.0 " />
  <path
     id="path883"
     inkscape:label="part"
     style="stroke:#000000;stroke-width:0.26458333;fill:none;stroke-miterlimit:4;stroke-dasharray:none"
     d="M 213.0,334.0 L 213.0,325.795000001 L 209.0,325.795000001 L 209.0,315.704999999 L 213.0,315.704999999 L 213.0,303.545000001 L 209.0,303.545000001 L 209.0,293.454999999 L 213.0,293.454999999 L 213.0,281.295000001 L 209.0,281.295000001 L 209.0,271.204999999 L 213.0,271.204999999 L 213.0,259.045000001 L 209.0,259.045000001 L 209.0,248.954999999 L 213.0,248.954999999 L 213.0,236.795000001 L 209.0,236.795000001 L 209.0,226.704999999 L 213.0,226.704999999 L 213.0,214.545000001 L 209.0,214.545000001 L 209.0,204.454999999 L 213.0,204.454999999 L 213.0,192.295000001 L 209.0,192.295000001 L 209.0,182.204999999 L 213.0,182.204999999 L 213.0,174.0 " />
  <path
     id="path885"
     inkscape:label="part"
     style="stroke:#000000;stroke-width:0.26458333;fill:none;stroke-miterlimit:4;stroke-dasharray:none"
     d="M 378.0,170.0 L 392.045000001,170.0 L 392.045000001,174.0 L 401.954999999,174.0 L 401.954999999,170.0 L 416.0,170.0 " />
  <path
     id="path887"
     inkscape:label="part"
     style="stroke:#000000;stroke-width:0.26458333;fill:none;stroke-miterlimit:4;stroke-dasharray:none"
     d="M 416.0,170.0 L 416.0,182.295000001 L 412.0,182.295000001 L 412.0,192.204999999 L 416.0,192.204999999 L 416.0,204.545000001 L 412.0,204.545000001 L 412.0,214.454999999 L 416.0,214.454999999 L 416.0,226.795000001 L 412.0,226.795000001 L 412.0,236.704999999 L 416.0,236.704999999 L 416.0,249.045000001 L 412.0,249.045000001 L 412.0,258.954999999 L 416.0,258.954999999 L 416.0,271.295000001 L 412.0,271.295000001 L 412.0,281.204999999 L 416.0,281.204999999 L 416.0,293.545000001 L 412.0,293.545000001 L 412.0,303.454999999 L 416.0,303.454999999 L 416.0,315.795000001 L 412.0,315.795000001 L 412.0,325.704999999 L 416.0,325.704999999 L 416.0,338.0 " />
  <path
     id="path889"
     inkscape:label="part"
     style="stroke:#000000;stroke-width:0.26458333;fill:none;stroke-miterlimit:4;stroke-dasharray:none"
     d="M 416.0,338.0 L 401.954999999,338.0 L 401.954999999,334.0 L 392.045000001,334.0 L 392.045000001,338.0 L 378.0,338.0 " />
  <path
     id="path891"
     inkscape:label="part"
     style="stroke:#000000;stroke-width:0.26458333;fill:none;stroke-miterlimit:4;stroke-dasharray:none"
     d="M 378.0,338.0 L 378.0,325.704999999 L 382.0,325.704999999 L 382.0,315.795000001 L 378.0,315.795000001 L 378.0,303.454999999 L 382.0,303.454999999 L 382.0,293.545000001 L 378.0,293.545000001 L 378.0,281.204999999 L 382.0,281.204999999 L 382.0,271.295000001 L 378.0,271.295000001 L 378.0,258.954999999 L 382.0,258.954999999 L 382.0,249.045000001 L 378.0,249.045000001 L 378.0,236.704999999 L 382.0,236.704999999 L 382.0,226.795000001 L 378.0,226.795000001 L 378.0,214.454999999 L 382.0,214.454999999 L 382.0,204.545000001 L 378.0,204.545000001 L 378.0,192.204999999 L 382.0,192.204999999 L 382.0,182.295000001 L 378.0,182.295000001 L 378.0,170.0 " />
  <path
     id="path893"
     inkscape:label="part"
     style="stroke:#000000;stroke-width:0.26458333;fill:none;stroke-miterlimit:4;stroke-dasharray:none"
     d="M 170.0,5.0 L 183.954999999,5.0 L 183.954999999,1.0 L 194.045000001,1.0 L 194.045000001,5.0 L 208.0,5.0 " />
  <path
     id="path895"
     inkscape:label="part"
     style="stroke:#000000;stroke-width:0.26458333;fill:none;stroke-miterlimit:4;stroke-dasharray:none"
     d="M 208.0,5.0 L 208.0,13.2950000009 L 204.0,13.2950000009 L 204.0,23.2049999991 L 208.0,23.2049999991 L 208.0,35.5450000009 L 204.0,35.5450000009 L 204.0,45.4549999991 L 208.0,45.4549999991 L 208.0,57.7950000009 L 204.0,57.7950000009 L 204.0,67.7049999991 L 208.0,67.7049999991 L 208.0,80.0450000009 L 204.0,80.0450000009 L 204.0,89.9549999991 L 208.0,89.9549999991 L 208.0,102.295000001 L 204.0,102.295000001 L 204.0,112.204999999 L 208.0,112.204999999 L 208.0,124.545000001 L 204.0,124.545000001 L 204.0,134.454999999 L 208.0,134.454999999 L 208.0,146.795000001 L 204.0,146.795000001 L 204.0,156.704999999 L 208.0,156.704999999 L 208.0,165.0 " />
  <path
     id="path897"
     inkscape:label="part"
     style="stroke:#000000;stroke-width:0.26458333;fill:none;stroke-miterlimit:4;stroke-dasharray:none"
     d="M 208.0,165.0 L 194.045000001,165.0 L 194.045000001,169.0 L 183.954999999,169.0 L 183.954999999,165.0 L 170.0,165.0 " />
  <path
     id="path899"
     inkscape:label="part"
     style="stroke:#000000;stroke-width:0.26458333;fill:none;stroke-miterlimit:4;stroke-dasharray:none"
     d="M 170.0,165.0 L 170.0,156.704999999 L 174.0,156.704999999 L 174.0,146.795000001 L 170.0,146.795000001 L 170.0,134.454999999 L 174.0,134.454999999 L 174.0,124.545000001 L 170.0,124.545000001 L 170.0,112.204999999 L 174.0,112.204999999 L 174.0,102.295000001 L 170.0,102.295000001 L 170.0,89.9549999991 L 174.0,89.9549999991 L 174.0,80.0450000009 L 170.0,80.0450000009 L 170.0,67.7049999991 L 174.0,67.7049999991 L 174.0,57.7950000009 L 170.0,57.7950000009 L 170.0,45.4549999991 L 174.0,45.4549999991 L 174.0,35.5450000009 L 170.0,35.5450000009 L 170.0,23.2049999991 L 174.0,23.2049999991 L 174.0,13.2950000009 L 170.0,13.2950000009 L 170.0,5.0 " />
  <circle
     style="fill:none;fill-opacity:1;stroke:#ff0000;stroke-width:0.26458333;stroke-miterlimit:4;stroke-dasharray:none;stroke-dashoffset:0;stroke-opacity:1"
     id="path937"
     cx="293"
     cy="254"
     r="64.812401" />
</svg>
