<?xml version="1.0" encoding="UTF-8" standalone="no"?>
<!-- Created with Inkscape (http://www.inkscape.org/) -->

<svg
   xmlns:dc="http://purl.org/dc/elements/1.1/"
   xmlns:cc="http://creativecommons.org/ns#"
   xmlns:rdf="http://www.w3.org/1999/02/22-rdf-syntax-ns#"
   xmlns:svg="http://www.w3.org/2000/svg"
   xmlns="http://www.w3.org/2000/svg"
   xmlns:sodipodi="http://sodipodi.sourceforge.net/DTD/sodipodi-0.dtd"
   xmlns:inkscape="http://www.inkscape.org/namespaces/inkscape"
   id="svg8"
   version="1.1"
   viewBox="0 0 210 297"
   height="297mm"
   width="210mm"
   inkscape:version="0.92.3 (2405546, 2018-03-11)"
   sodipodi:docname="Box unten.svg">
  <sodipodi:namedview
     inkscape:measure-end="730.072,-1434.66"
     inkscape:measure-start="731.169,480"
     inkscape:window-maximized="1"
     inkscape:window-y="27"
     inkscape:window-x="67"
     inkscape:window-height="1025"
     inkscape:window-width="1853"
     showgrid="false"
     inkscape:current-layer="svg8"
     inkscape:document-units="mm"
     inkscape:cy="-854.46209"
     inkscape:cx="1541.7317"
     inkscape:zoom="0.1767767"
     inkscape:pageshadow="2"
     inkscape:pageopacity="0.0"
     borderopacity="1.0"
     bordercolor="#666666"
     pagecolor="#ffffff"
     id="base" />
  <defs
     id="defs2" />
  <metadata
     id="metadata5">
    <rdf:RDF>
      <cc:Work
         rdf:about="">
        <dc:format>image/svg+xml</dc:format>
        <dc:type
           rdf:resource="http://purl.org/dc/dcmitype/StillImage" />
        <dc:title />
      </cc:Work>
    </rdf:RDF>
  </metadata>
  <g
     id="layer1"
     inkscape:groupmode="layer"
     inkscape:label="Ebene 1">
    <circle
       style="fill:none;fill-opacity:1;stroke:#ff0000;stroke-width:0.26458332;stroke-miterlimit:4;stroke-dasharray:none;stroke-dashoffset:0;stroke-opacity:1"
       id="path1400-3-3"
       cx="199.3159"
       cy="104.30271"
       r="64.810211" />
  </g>
  <g
     id="g1573"
     inkscape:groupmode="layer"
     inkscape:label="newlayer" />
  <g
     inkscape:label="newlayer"
     inkscape:groupmode="layer"
     id="g2300" />
  <g
     id="g3532"
     inkscape:groupmode="layer"
     inkscape:label="newlayer" />
  <g
     inkscape:label="newlayer"
     inkscape:groupmode="layer"
     id="g3740" />
  <g
     id="g937"
     inkscape:groupmode="layer"
     inkscape:label="newlayer" />
  <g
     inkscape:label="newlayer"
     inkscape:groupmode="layer"
     id="g1117" />
  <g
     id="g1331"
     inkscape:groupmode="layer"
     inkscape:label="newlayer" />
  <g
     inkscape:label="newlayer"
     inkscape:groupmode="layer"
     id="g558" />
  <g
     id="g1661"
     inkscape:groupmode="layer"
     inkscape:label="newlayer" />
  <path
     id="path1663"
     inkscape:label="part"
     style="fill:none;stroke:#000000;stroke-width:0.26458332;stroke-miterlimit:4;stroke-dasharray:none"
     d="m 18.315908,189.30275 h 11.855 v -4 h 10.29 v 4 h 11.71 v -4 h 10.29 v 4 h 11.71 v -4 h 10.29 v 4 h 11.71 v -4 h 10.290002 v 4 h 11.855"
     inkscape:connector-curvature="0" />
  <path
     id="path1665"
     inkscape:label="part"
     style="fill:none;stroke:#000000;stroke-width:0.26458332;stroke-miterlimit:4;stroke-dasharray:none"
     d="m 87.482708,196.69775 v 9.71 h 4 v -9.71 h -4"
     inkscape:connector-curvature="0" />
  <path
     id="path1667"
     inkscape:label="part"
     style="fill:none;stroke:#000000;stroke-width:0.26458332;stroke-miterlimit:4;stroke-dasharray:none"
     d="m 87.482708,217.94775 v 9.71 h 4 v -9.71 h -4"
     inkscape:connector-curvature="0" />
  <path
     id="path1669"
     inkscape:label="part"
     style="fill:none;stroke:#000000;stroke-width:0.26458332;stroke-miterlimit:4;stroke-dasharray:none"
     d="m 87.482708,239.19775 v 9.71 h 4 v -9.71 h -4"
     inkscape:connector-curvature="0" />
  <path
     id="path1671"
     inkscape:label="part"
     style="fill:none;stroke:#000000;stroke-width:0.26458332;stroke-miterlimit:4;stroke-dasharray:none"
     d="m 87.482708,260.44775 v 9.71 h 4 v -9.71 h -4"
     inkscape:connector-curvature="0" />
  <path
     id="path1673"
     inkscape:label="part"
     style="fill:none;stroke:#000000;stroke-width:0.26458332;stroke-miterlimit:4;stroke-dasharray:none"
     d="m 87.482708,281.69775 v 9.71 h 4 v -9.71 h -4"
     inkscape:connector-curvature="0" />
  <path
     id="path1675"
     inkscape:label="part"
     style="fill:none;stroke:#000000;stroke-width:0.26458332;stroke-miterlimit:4;stroke-dasharray:none"
     d="m 87.482708,302.94775 v 9.71 h 4 v -9.71 h -4"
     inkscape:connector-curvature="0" />
  <path
     id="path1677"
     inkscape:label="part"
     style="fill:none;stroke:#000000;stroke-width:0.26458332;stroke-miterlimit:4;stroke-dasharray:none"
     d="m 87.482708,324.19775 v 9.71 h 4 v -9.71 h -4"
     inkscape:connector-curvature="0" />
  <path
     id="path1679"
     inkscape:label="part"
     style="fill:none;stroke:#000000;stroke-width:0.26458332;stroke-miterlimit:4;stroke-dasharray:none"
     d="m 118.31591,189.30275 v 7.395 h -4 v 9.71 h 4 v 11.54 h -4 v 9.71 h 4 v 11.54 h -4 v 9.71 h 4 v 11.54 h -4 v 9.71 h 4 v 11.54 h -4 v 9.71 h 4 v 11.54 h -4 v 9.71 h 4 v 11.54 h -4 v 9.71 h 4 v 7.395"
     inkscape:connector-curvature="0" />
  <path
     id="path1681"
     inkscape:label="part"
     style="fill:none;stroke:#000000;stroke-width:0.26458332;stroke-miterlimit:4;stroke-dasharray:none"
     d="m 118.31591,341.30275 h -11.855 v 4 H 96.170908 v -4 h -11.71 v 4 h -10.29 v -4 h -11.71 v 4 h -10.29 v -4 h -11.71 v 4 h -10.29 v -4 h -11.855"
     inkscape:connector-curvature="0" />
  <path
     id="path1683"
     inkscape:label="part"
     style="fill:none;stroke:#000000;stroke-width:0.26458332;stroke-miterlimit:4;stroke-dasharray:none"
     d="m 18.315908,341.30275 v -7.395 h 4 v -9.71 h -4 v -11.54 h 4 v -9.71 h -4 v -11.54 h 4 v -9.71 h -4 v -11.54 h 4 v -9.71 h -4 v -11.54 h 4 v -9.71 h -4 v -11.54 h 4 v -9.71 h -4 v -11.54 h 4 v -9.71 h -4 v -7.395"
     inkscape:connector-curvature="0" />
  <path
     id="path1693"
     inkscape:label="part"
     style="fill:none;stroke:#000000;stroke-width:0.26458332;stroke-miterlimit:4;stroke-dasharray:none"
     d="m 123.84508,189.89026 h 7.105 v -4 h 10.29 v 4 h 10.96 v -4 h 10.29 v 4 h 10.96 v -4 h 10.29 v 4 h 10.96 v -4 h 10.29 v 4 h 10.96 v -4 h 10.29 v 4 h 10.96 v -4 h 10.29 v 4 h 10.96 v -4 h 10.29 v 4 h 7.105"
     inkscape:connector-curvature="0" />
  <path
     id="path1695"
     inkscape:label="part"
     style="fill:none;stroke:#000000;stroke-width:0.26458332;stroke-miterlimit:4;stroke-dasharray:none"
     d="m 275.84508,189.89026 v 7.105 h 4 v 10.29 h -4 v 10.96 h 4 v 10.29 h -4 v 10.96 h 4 v 10.29 h -4 v 10.96 h 4 v 10.29 h -4 v 10.96 h 4 v 10.29 h -4 v 10.96 h 4 v 10.29 h -4 v 10.96 h 4 v 10.29 h -4 v 7.105"
     inkscape:connector-curvature="0" />
  <path
     id="path1697"
     inkscape:label="part"
     style="fill:none;stroke:#000000;stroke-width:0.26458332;stroke-miterlimit:4;stroke-dasharray:none"
     d="m 275.84508,341.89026 h -7.105 v 4 h -10.29 v -4 h -10.96 v 4 h -10.29 v -4 h -10.96 v 4 h -10.29 v -4 h -10.96 v 4 h -10.29 v -4 h -10.96 v 4 h -10.29 v -4 h -10.96 v 4 h -10.29 v -4 h -10.96 v 4 h -10.29 v -4 h -7.105"
     inkscape:connector-curvature="0" />
  <path
     id="path1699"
     inkscape:label="part"
     style="fill:none;stroke:#000000;stroke-width:0.26458332;stroke-miterlimit:4;stroke-dasharray:none"
     d="m 123.84508,341.89026 v -7.105 h -4 v -10.29 h 4 v -10.96 h -4 v -10.29 h 4 v -10.96 h -4 v -10.29 h 4 v -10.96 h -4 v -10.29 h 4 v -10.96 h -4 v -10.29 h 4 v -10.96 h -4 v -10.29 h 4 v -10.96 h -4 v -10.29 h 4 v -7.105"
     inkscape:connector-curvature="0" />
  <path
     id="path1701"
     inkscape:label="part"
     style="fill:none;stroke:#000000;stroke-width:0.26458332;stroke-miterlimit:4;stroke-dasharray:none"
     d="m 18.315908,24.302745 h 12.145 v 4 h 9.71 v -4 h 12.29 v 4 h 9.71 v -4 h 12.29 v 4 h 9.71 v -4 h 12.29 v 4 h 9.710002 v -4 h 12.145"
     inkscape:connector-curvature="0" />
  <path
     id="path1703"
     inkscape:label="part"
     style="fill:none;stroke:#000000;stroke-width:0.26458332;stroke-miterlimit:4;stroke-dasharray:none"
     d="m 87.482708,35.697745 v 9.71 h 4 v -9.71 h -4"
     inkscape:connector-curvature="0" />
  <path
     id="path1705"
     inkscape:label="part"
     style="fill:none;stroke:#000000;stroke-width:0.26458332;stroke-miterlimit:4;stroke-dasharray:none"
     d="m 87.482708,56.947745 v 9.71 h 4 v -9.71 h -4"
     inkscape:connector-curvature="0" />
  <path
     id="path1707"
     inkscape:label="part"
     style="fill:none;stroke:#000000;stroke-width:0.26458332;stroke-miterlimit:4;stroke-dasharray:none"
     d="m 87.482708,78.197745 v 9.71 h 4 v -9.71 h -4"
     inkscape:connector-curvature="0" />
  <path
     id="path1709"
     inkscape:label="part"
     style="fill:none;stroke:#000000;stroke-width:0.26458332;stroke-miterlimit:4;stroke-dasharray:none"
     d="m 87.482708,99.447745 v 9.710005 h 4 v -9.710005 h -4"
     inkscape:connector-curvature="0" />
  <path
     id="path1711"
     inkscape:label="part"
     style="fill:none;stroke:#000000;stroke-width:0.26458332;stroke-miterlimit:4;stroke-dasharray:none"
     d="m 87.482708,120.69775 v 9.71 h 4 v -9.71 h -4"
     inkscape:connector-curvature="0" />
  <path
     id="path1713"
     inkscape:label="part"
     style="fill:none;stroke:#000000;stroke-width:0.26458332;stroke-miterlimit:4;stroke-dasharray:none"
     d="m 87.482708,141.94775 v 9.71 h 4 v -9.71 h -4"
     inkscape:connector-curvature="0" />
  <path
     id="path1715"
     inkscape:label="part"
     style="fill:none;stroke:#000000;stroke-width:0.26458332;stroke-miterlimit:4;stroke-dasharray:none"
     d="m 87.482708,163.19775 v 9.71 h 4 v -9.71 h -4"
     inkscape:connector-curvature="0" />
  <path
     id="path1717"
     inkscape:label="part"
     style="fill:none;stroke:#000000;stroke-width:0.26458332;stroke-miterlimit:4;stroke-dasharray:none"
     d="m 118.31591,24.302745 v 11.395 h -4 v 9.71 h 4 v 11.54 h -4 v 9.71 h 4 v 11.54 h -4 v 9.71 h 4 v 11.54 h -4 v 9.710005 h 4 v 11.54 h -4 v 9.71 h 4 v 11.54 h -4 v 9.71 h 4 v 11.54 h -4 v 9.71 h 4 v 11.395"
     inkscape:connector-curvature="0" />
  <path
     id="path1719"
     inkscape:label="part"
     style="fill:none;stroke:#000000;stroke-width:0.26458332;stroke-miterlimit:4;stroke-dasharray:none"
     d="m 118.31591,184.30275 h -12.145 v -4 h -9.710002 v 4 h -12.29 v -4 h -9.71 v 4 h -12.29 v -4 h -9.71 v 4 h -12.29 v -4 h -9.71 v 4 h -12.145"
     inkscape:connector-curvature="0" />
  <path
     id="path1721"
     inkscape:label="part"
     style="fill:none;stroke:#000000;stroke-width:0.26458332;stroke-miterlimit:4;stroke-dasharray:none"
     d="m 18.315908,184.30275 v -11.395 h 4 v -9.71 h -4 v -11.54 h 4 v -9.71 h -4 v -11.54 h 4 v -9.71 h -4 v -11.54 h 4 v -9.710005 h -4 v -11.54 h 4 v -9.71 h -4 v -11.54 h 4 v -9.71 h -4 v -11.54 h 4 v -9.71 h -4 v -11.395"
     inkscape:connector-curvature="0" />
  <path
     id="path1723"
     inkscape:label="part"
     style="fill:none;stroke:#000000;stroke-width:0.26458332;stroke-miterlimit:4;stroke-dasharray:none"
     d="m 123.31591,28.302745 h 7.105 v -4 h 10.29 v 4 h 10.96 v -4 h 10.29 v 4 h 10.96 v -4 h 10.29 v 4 h 10.96 v -4 h 10.29 v 4 h 10.96 v -4 h 10.29 v 4 h 10.96 v -4 h 10.29 v 4 h 10.96 v -4 h 10.29 v 4 h 7.105"
     inkscape:connector-curvature="0" />
  <path
     id="path1725"
     inkscape:label="part"
     style="fill:none;stroke:#000000;stroke-width:0.26458332;stroke-miterlimit:4;stroke-dasharray:none"
     d="m 275.31591,28.302745 v 7.105 h 4 v 10.29 h -4 v 10.96 h 4 v 10.29 h -4 v 10.96 h 4 v 10.29 h -4 v 10.96 h 4 v 10.290005 h -4 v 10.96 h 4 v 10.29 h -4 v 10.96 h 4 v 10.29 h -4 v 10.96 h 4 v 10.29 h -4 v 7.105"
     inkscape:connector-curvature="0" />
  <path
     id="path1727"
     inkscape:label="part"
     style="fill:none;stroke:#000000;stroke-width:0.26458332;stroke-miterlimit:4;stroke-dasharray:none"
     d="m 275.31591,180.30275 h -7.105 v 4 h -10.29 v -4 h -10.96 v 4 h -10.29 v -4 h -10.96 v 4 h -10.29 v -4 h -10.96 v 4 h -10.29 v -4 h -10.96 v 4 h -10.29 v -4 h -10.96 v 4 h -10.29 v -4 h -10.96 v 4 h -10.29 v -4 h -7.105"
     inkscape:connector-curvature="0" />
  <path
     id="path1729"
     inkscape:label="part"
     style="fill:none;stroke:#000000;stroke-width:0.26458332;stroke-miterlimit:4;stroke-dasharray:none"
     d="m 123.31591,180.30275 v -7.105 h -4 v -10.29 h 4 v -10.96 h -4 v -10.29 h 4 v -10.96 h -4 v -10.29 h 4 v -10.96 h -4 V 99.157745 h 4 v -10.96 h -4 v -10.29 h 4 v -10.96 h -4 v -10.29 h 4 v -10.96 h -4 v -10.29 h 4 v -7.105"
     inkscape:connector-curvature="0" />
  <rect
     style="fill:none;fill-opacity:1;stroke:#000000;stroke-width:0.26458332;stroke-miterlimit:4;stroke-dasharray:none;stroke-dashoffset:0;stroke-opacity:1"
     id="rect863-6-6"
     width="12.889071"
     height="18.86817"
     x="279.82187"
     y="-62.542622"
     transform="rotate(90)" />
  <ellipse
     style="fill:none;fill-opacity:1;stroke:#000000;stroke-width:0.26458332;stroke-miterlimit:4;stroke-dasharray:none;stroke-dashoffset:0;stroke-opacity:1"
     id="path867-7-7"
     cx="36.765339"
     cy="324.14908"
     rx="3.55951"
     ry="3.5595098" />
</svg>
