<?xml version="1.0" encoding="UTF-8" standalone="no"?>
<!-- Created with Inkscape (http://www.inkscape.org/) -->

<svg
   xmlns:dc="http://purl.org/dc/elements/1.1/"
   xmlns:cc="http://creativecommons.org/ns#"
   xmlns:rdf="http://www.w3.org/1999/02/22-rdf-syntax-ns#"
   xmlns:svg="http://www.w3.org/2000/svg"
   xmlns="http://www.w3.org/2000/svg"
   xmlns:sodipodi="http://sodipodi.sourceforge.net/DTD/sodipodi-0.dtd"
   xmlns:inkscape="http://www.inkscape.org/namespaces/inkscape"
   sodipodi:docname="Box unten2.svg"
   inkscape:version="0.92.3 (2405546, 2018-03-11)"
   width="210mm"
   height="297mm"
   viewBox="0 0 210 297"
   version="1.1"
   id="svg8">
  <sodipodi:namedview
     id="base"
     pagecolor="#ffffff"
     bordercolor="#666666"
     borderopacity="1.0"
     inkscape:pageopacity="0.0"
     inkscape:pageshadow="2"
     inkscape:zoom="0.25000001"
     inkscape:cx="-514.3382"
     inkscape:cy="-14.037439"
     inkscape:document-units="mm"
     inkscape:current-layer="svg8"
     showgrid="false"
     inkscape:window-width="1853"
     inkscape:window-height="1025"
     inkscape:window-x="67"
     inkscape:window-y="27"
     inkscape:window-maximized="1"
     inkscape:measure-start="731.169,480"
     inkscape:measure-end="730.072,-1434.66" />
  <defs
     id="defs2" />
  <metadata
     id="metadata5">
    <rdf:RDF>
      <cc:Work
         rdf:about="">
        <dc:format>image/svg+xml</dc:format>
        <dc:type
           rdf:resource="http://purl.org/dc/dcmitype/StillImage" />
        <dc:title />
      </cc:Work>
    </rdf:RDF>
  </metadata>
  <g
     inkscape:label="Ebene 1"
     inkscape:groupmode="layer"
     id="layer1" />
  <g
     inkscape:label="newlayer"
     inkscape:groupmode="layer"
     id="g1573" />
  <g
     id="g2300"
     inkscape:groupmode="layer"
     inkscape:label="newlayer" />
  <g
     inkscape:label="newlayer"
     inkscape:groupmode="layer"
     id="g3532" />
  <g
     id="g3740"
     inkscape:groupmode="layer"
     inkscape:label="newlayer" />
  <g
     inkscape:label="newlayer"
     inkscape:groupmode="layer"
     id="g937" />
  <g
     id="g1117"
     inkscape:groupmode="layer"
     inkscape:label="newlayer" />
  <g
     inkscape:label="newlayer"
     inkscape:groupmode="layer"
     id="g1331" />
  <g
     id="g558"
     inkscape:groupmode="layer"
     inkscape:label="newlayer" />
  <path
     id="path1685"
     inkscape:label="part"
     style="fill:none;stroke:#000000;stroke-width:0.26458332;stroke-miterlimit:4;stroke-dasharray:none"
     d="m 28.015801,23.524992 h 7.105 v -4 h 10.29 v 4 h 10.96 v -4 h 10.29 v 4 h 10.96 v -4 h 10.29 v 4 h 10.96 v -4 H 109.1608 v 4 h 10.96 v -4 h 10.29 v 4 h 10.96 v -4 h 10.29 v 4 h 10.96 v -4 h 10.29 v 4 h 7.105"
     inkscape:connector-curvature="0" />
  <path
     id="path1687"
     inkscape:label="part"
     style="fill:none;stroke:#000000;stroke-width:0.26458332;stroke-miterlimit:4;stroke-dasharray:none"
     d="m 180.0158,23.524992 v 7.105001 h 4 v 10.29 h -4 v 10.960001 h 4 v 10.289998 h -4 v 10.960002 h 4 v 10.29 h -4 v 10.96 h 4 v 10.289996 h -4 v 10.96 h 4 v 10.29 h -4 v 10.96 h 4 v 10.29 h -4 v 10.96 h 4 v 10.29 h -4 v 7.105"
     inkscape:connector-curvature="0" />
  <path
     id="path1689"
     inkscape:label="part"
     style="fill:none;stroke:#000000;stroke-width:0.26458332;stroke-miterlimit:4;stroke-dasharray:none"
     d="m 180.0158,175.52499 h -7.105 v 4 h -10.29 v -4 h -10.96 v 4 h -10.29 v -4 h -10.96 v 4 h -10.29 v -4 h -10.96 v 4 H 98.870801 v -4 h -10.96 v 4 h -10.29 v -4 h -10.96 v 4 h -10.29 v -4 h -10.96 v 4 h -10.29 v -4 h -7.105"
     inkscape:connector-curvature="0" />
  <path
     id="path1691"
     inkscape:label="part"
     style="fill:none;stroke:#000000;stroke-width:0.26458332;stroke-miterlimit:4;stroke-dasharray:none"
     d="m 28.015801,175.52499 v -7.105 h -4 v -10.29 h 4 v -10.96 h -4 v -10.29 h 4 v -10.96 h -4 v -10.29 h 4 v -10.96 h -4 V 94.379994 h 4 v -10.96 h -4 v -10.29 h 4 V 62.169992 h -4 V 51.879994 h 4 V 40.919993 h -4 v -10.29 h 4 v -7.105001"
     inkscape:connector-curvature="0" />
  <path
     id="path1731"
     inkscape:label="part"
     style="fill:none;stroke:#000000;stroke-width:0.26458332;stroke-miterlimit:4;stroke-dasharray:none"
     d="m 23.295821,181.64167 h 12.145 v 4 h 9.71 v -4 h 12.29 v 4 h 9.709999 v -4 h 12.290002 v 4 h 9.709999 v -4 h 12.289999 v 4 h 9.71 v -4 h 12.145"
     inkscape:connector-curvature="0" />
  <path
     id="path1733"
     inkscape:label="part"
     style="fill:none;stroke:#000000;stroke-width:0.26458332;stroke-miterlimit:4;stroke-dasharray:none"
     d="m 92.462622,193.03667 v 9.71 h 3.999999 v -9.71 h -3.999999"
     inkscape:connector-curvature="0" />
  <path
     id="path1735"
     inkscape:label="part"
     style="fill:none;stroke:#000000;stroke-width:0.26458332;stroke-miterlimit:4;stroke-dasharray:none"
     d="m 92.462622,214.28667 v 9.71 h 3.999999 v -9.71 h -3.999999"
     inkscape:connector-curvature="0" />
  <path
     id="path1737"
     inkscape:label="part"
     style="fill:none;stroke:#000000;stroke-width:0.26458332;stroke-miterlimit:4;stroke-dasharray:none"
     d="m 92.462622,235.53667 v 9.71 h 3.999999 v -9.71 h -3.999999"
     inkscape:connector-curvature="0" />
  <path
     id="path1739"
     inkscape:label="part"
     style="fill:none;stroke:#000000;stroke-width:0.26458332;stroke-miterlimit:4;stroke-dasharray:none"
     d="m 92.462622,256.78667 v 9.71 h 3.999999 v -9.71 h -3.999999"
     inkscape:connector-curvature="0" />
  <path
     id="path1741"
     inkscape:label="part"
     style="fill:none;stroke:#000000;stroke-width:0.26458332;stroke-miterlimit:4;stroke-dasharray:none"
     d="m 92.462622,278.03667 v 9.70999 h 3.999999 v -9.70999 h -3.999999"
     inkscape:connector-curvature="0" />
  <path
     id="path1743"
     inkscape:label="part"
     style="fill:none;stroke:#000000;stroke-width:0.26458332;stroke-miterlimit:4;stroke-dasharray:none"
     d="m 92.462622,299.28668 v 9.70999 h 3.999999 v -9.70999 h -3.999999"
     inkscape:connector-curvature="0" />
  <path
     id="path1745"
     inkscape:label="part"
     style="fill:none;stroke:#000000;stroke-width:0.26458332;stroke-miterlimit:4;stroke-dasharray:none"
     d="m 92.462622,320.53669 v 9.70999 h 3.999999 v -9.70999 h -3.999999"
     inkscape:connector-curvature="0" />
  <path
     id="path1747"
     inkscape:label="part"
     style="fill:none;stroke:#000000;stroke-width:0.26458332;stroke-miterlimit:4;stroke-dasharray:none"
     d="m 123.29582,181.64167 v 11.395 h -4 v 9.71 h 4 v 11.54 h -4 v 9.71 h 4 v 11.54 h -4 v 9.71 h 4 v 11.54 h -4 v 9.71 h 4 v 11.54 h -4 v 9.70999 h 4 v 11.54002 h -4 v 9.70999 h 4 v 11.54002 h -4 v 9.70999 h 4 v 11.395"
     inkscape:connector-curvature="0" />
  <path
     id="path1749"
     inkscape:label="part"
     style="fill:none;stroke:#000000;stroke-width:0.26458332;stroke-miterlimit:4;stroke-dasharray:none"
     d="m 123.29582,341.64168 h -12.145 v -4 h -9.71 v 4 H 89.150821 v -4 h -9.709999 v 4 H 67.15082 v -4 h -9.709999 v 4 h -12.29 v -4 h -9.71 v 4 h -12.145"
     inkscape:connector-curvature="0" />
  <path
     id="path1751"
     inkscape:label="part"
     style="fill:none;stroke:#000000;stroke-width:0.26458332;stroke-miterlimit:4;stroke-dasharray:none"
     d="m 23.295821,341.64168 v -11.395 h 4 v -9.70999 h -4 v -11.54002 h 4 v -9.70999 h -4 v -11.54002 h 4 v -9.70999 h -4 v -11.54 h 4 v -9.71 h -4 v -11.54 h 4 v -9.71 h -4 v -11.54 h 4 v -9.71 h -4 v -11.54 h 4 v -9.71 h -4 v -11.395"
     inkscape:connector-curvature="0" />
  <path
     id="path1753"
     inkscape:label="part"
     style="fill:none;stroke:#000000;stroke-width:0.26458332;stroke-miterlimit:4;stroke-dasharray:none"
     d="m 126.47084,185.64167 h 11.855 v -4 h 10.29 v 4 h 11.71 v -4 h 10.29 v 4 h 11.71 v -4 h 10.29 v 4 h 11.71 v -4 h 10.29 v 4 h 11.855"
     inkscape:connector-curvature="0" />
  <path
     id="path1755"
     inkscape:label="part"
     style="fill:none;stroke:#000000;stroke-width:0.26458332;stroke-miterlimit:4;stroke-dasharray:none"
     d="m 195.63764,193.03667 v 9.71 h 4 v -9.71 h -4"
     inkscape:connector-curvature="0" />
  <path
     id="path1757"
     inkscape:label="part"
     style="fill:none;stroke:#000000;stroke-width:0.26458332;stroke-miterlimit:4;stroke-dasharray:none"
     d="m 195.63764,214.28667 v 9.71 h 4 v -9.71 h -4"
     inkscape:connector-curvature="0" />
  <path
     id="path1759"
     inkscape:label="part"
     style="fill:none;stroke:#000000;stroke-width:0.26458332;stroke-miterlimit:4;stroke-dasharray:none"
     d="m 195.63764,235.53667 v 9.71 h 4 v -9.71 h -4"
     inkscape:connector-curvature="0" />
  <path
     id="path1761"
     inkscape:label="part"
     style="fill:none;stroke:#000000;stroke-width:0.26458332;stroke-miterlimit:4;stroke-dasharray:none"
     d="m 195.63764,256.78667 v 9.71 h 4 v -9.71 h -4"
     inkscape:connector-curvature="0" />
  <path
     id="path1763"
     inkscape:label="part"
     style="fill:none;stroke:#000000;stroke-width:0.26458332;stroke-miterlimit:4;stroke-dasharray:none"
     d="m 195.63764,278.03667 v 9.70999 h 4 v -9.70999 h -4"
     inkscape:connector-curvature="0" />
  <path
     id="path1765"
     inkscape:label="part"
     style="fill:none;stroke:#000000;stroke-width:0.26458332;stroke-miterlimit:4;stroke-dasharray:none"
     d="m 195.63764,299.28668 v 9.70999 h 4 v -9.70999 h -4"
     inkscape:connector-curvature="0" />
  <path
     id="path1767"
     inkscape:label="part"
     style="fill:none;stroke:#000000;stroke-width:0.26458332;stroke-miterlimit:4;stroke-dasharray:none"
     d="m 195.63764,320.53669 v 9.70999 h 4 v -9.70999 h -4"
     inkscape:connector-curvature="0" />
  <path
     id="path1769"
     inkscape:label="part"
     style="fill:none;stroke:#000000;stroke-width:0.26458332;stroke-miterlimit:4;stroke-dasharray:none"
     d="m 226.47084,185.64167 v 7.395 h -3.99999 v 9.71 h 3.99999 v 11.54 h -3.99999 v 9.71 h 3.99999 v 11.54 h -3.99999 v 9.71 h 3.99999 v 11.54 h -3.99999 v 9.71 h 3.99999 v 11.54 h -3.99999 v 9.70999 h 3.99999 v 11.54002 h -3.99999 v 9.70999 h 3.99999 v 11.54002 h -3.99999 v 9.70999 h 3.99999 v 7.395"
     inkscape:connector-curvature="0" />
  <path
     id="path1771"
     inkscape:label="part"
     style="fill:none;stroke:#000000;stroke-width:0.26458332;stroke-miterlimit:4;stroke-dasharray:none"
     d="m 226.47084,337.64168 h -11.855 v 4 h -10.29 v -4 h -11.71 v 4 h -10.29 v -4 h -11.71 v 4 h -10.29 v -4 h -11.71 v 4 h -10.29 v -4 h -11.855"
     inkscape:connector-curvature="0" />
  <path
     id="path1773"
     inkscape:label="part"
     style="fill:none;stroke:#000000;stroke-width:0.26458332;stroke-miterlimit:4;stroke-dasharray:none"
     d="m 126.47084,337.64168 v -7.395 h 4 v -9.70999 h -4 v -11.54002 h 4 v -9.70999 h -4 v -11.54002 h 4 v -9.70999 h -4 v -11.54 h 4 v -9.71 h -4 v -11.54 h 4 v -9.71 h -4 v -11.54 h 4 v -9.71 h -4 v -11.54 h 4 v -9.71 h -4 v -7.395"
     inkscape:connector-curvature="0" />
</svg>
